ffmpeg version 3.4.8-0ubuntu0.2 Copyright (c) 2000-2020 the FFmpeg developers
  built with gcc 7 (Ubuntu 7.5.0-3ubuntu1~18.04)
  configuration: --prefix=/usr --extra-version=0ubuntu0.2 --toolchain=hardened --libdir=/usr/lib/x86_64-linux-gnu --incdir=/usr/include/x86_64-linux-gnu --enable-gpl --disable-stripping --enable-avresample --enable-avisynth --enable-gnutls --enable-ladspa --enable-libass --enable-libbluray --enable-libbs2b --enable-libcaca --enable-libcdio --enable-libflite --enable-libfontconfig --enable-libfreetype --enable-libfribidi --enable-libgme --enable-libgsm --enable-libmp3lame --enable-libmysofa --enable-libopenjpeg --enable-libopenmpt --enable-libopus --enable-libpulse --enable-librubberband --enable-librsvg --enable-libshine --enable-libsnappy --enable-libsoxr --enable-libspeex --enable-libssh --enable-libtheora --enable-libtwolame --enable-libvorbis --enable-libvpx --enable-libwavpack --enable-libwebp --enable-libx265 --enable-libxml2 --enable-libxvid --enable-libzmq --enable-libzvbi --enable-omx --enable-openal --enable-opengl --enable-sdl2 --enable-libdc1394 --enable-libdrm --enable-libiec61883 --enable-chromaprint --enable-frei0r --enable-libopencv --enable-libx264 --enable-shared
  libavutil      55. 78.100 / 55. 78.100
  libavcodec     57.107.100 / 57.107.100
  libavformat    57. 83.100 / 57. 83.100
  libavdevice    57. 10.100 / 57. 10.100
  libavfilter     6.107.100 /  6.107.100
  libavresample   3.  7.  0 /  3.  7.  0
  libswscale      4.  8.100 /  4.  8.100
  libswresample   2.  9.100 /  2.  9.100
  libpostproc    54.  7.100 / 54.  7.100
[rawvideo @ 0x562645e5ba20] Estimating duration from bitrate, this may be inaccurate
Input #0, rawvideo, from '../../SVC-Encoder-20220109T061506Z-001/SVC-Encoder/Dataset/RollerCoaster/ERP_8x8/tile_yuv/Tile_63_480x240.yuv':
  Duration: 00:00:10.00, start: 0.000000, bitrate: 41472 kb/s
    Stream #0:0: Video: rawvideo (I420 / 0x30323449), yuv420p, 480x240, 41472 kb/s, 30 tbr, 30 tbn, 30 tbc
Stream mapping:
  Stream #0:0 -> #0:0 (rawvideo (native) -> h264 (libx264))
Press [q] to stop, [?] for help
[libx264 @ 0x562645e68c60] using cpu capabilities: MMX2 SSE2Fast LZCNT SSSE3 SSE4.2 AVX
[libx264 @ 0x562645e68c60] profile High, level 2.1
Output #0, rawvideo, to 'RollerCoaster_Tile_63_480x240_x264_QP_36.h264':
  Metadata:
    encoder         : Lavf57.83.100
    Stream #0:0: Video: h264 (libx264), yuv420p, 480x240, q=-1--1, 30 fps, 30 tbn, 30 tbc
    Metadata:
      encoder         : Lavc57.107.100 libx264
    Side data:
      cpb: bitrate max/min/avg: 0/0/0 buffer size: 0 vbv_delay: -1
frame=  293 fps=0.0 q=42.0 PSNR=Y:nan U:nan V:nan *:nan size=      31kB time=00:00:08.33 bitrate=  31.0kbits/s speed=16.1x    frame=  300 fps=0.0 q=42.0 LPSNR=Y:inf U:inf V:inf *:inf size=      36kB time=00:00:09.93 bitrate=  29.8kbits/s speed=17.4x    
video:36kB audio:0kB subtitle:0kB other streams:0kB global headers:0kB muxing overhead: 0.000000%
[libx264 @ 0x562645e68c60] frame I:2     Avg QP:33.97  size:  3390  PSNR Mean Y:39.00 U:43.31 V:41.35 Avg:39.83 Global:39.81
[libx264 @ 0x562645e68c60] frame P:78    Avg QP:34.23  size:   204  PSNR Mean Y:37.85 U:43.20 V:41.94 Avg:38.92 Global:38.91
[libx264 @ 0x562645e68c60] frame B:220   Avg QP:41.41  size:    65  PSNR Mean Y:37.84 U:43.19 V:41.99 Avg:38.92 Global:38.90
[libx264 @ 0x562645e68c60] consecutive B-frames:  1.0%  2.7%  3.0% 93.3%
[libx264 @ 0x562645e68c60] mb I  I16..4: 35.8% 51.0% 13.2%
[libx264 @ 0x562645e68c60] mb P  I16..4:  0.5%  0.2%  0.0%  P16..4: 24.3%  0.6%  0.0%  0.0%  0.0%    skip:74.3%
[libx264 @ 0x562645e68c60] mb B  I16..4:  0.0%  0.0%  0.0%  B16..8: 11.9%  0.1%  0.0%  direct: 0.0%  skip:88.0%  L0:42.7% L1:57.3% BI: 0.1%
[libx264 @ 0x562645e68c60] 8x8 transform intra:46.8% inter:93.9%
[libx264 @ 0x562645e68c60] coded y,uvDC,uvAC intra: 26.4% 36.3% 8.8% inter: 0.3% 0.4% 0.0%
[libx264 @ 0x562645e68c60] i16 v,h,dc,p: 18% 64% 12%  6%
[libx264 @ 0x562645e68c60] i8 v,h,dc,ddl,ddr,vr,hd,vl,hu:  7% 43% 29%  4%  2%  1%  6%  2%  7%
[libx264 @ 0x562645e68c60] i4 v,h,dc,ddl,ddr,vr,hd,vl,hu:  7% 68% 16%  0%  1%  0%  4%  0%  2%
[libx264 @ 0x562645e68c60] i8c dc,h,v,p: 48% 47%  3%  3%
[libx264 @ 0x562645e68c60] Weighted P-Frames: Y:2.6% UV:0.0%
[libx264 @ 0x562645e68c60] ref P L0: 58.3% 13.1% 22.0%  6.5%  0.1%
[libx264 @ 0x562645e68c60] ref B L0: 67.7% 24.3%  8.0%
[libx264 @ 0x562645e68c60] ref B L1: 80.2% 19.8%
[libx264 @ 0x562645e68c60] PSNR Mean Y:37.849 U:43.196 V:41.972 Avg:38.923 Global:38.910 kb/s:29.61
